<svg width="300" height="300" viewBox="0 0 300 300" fill="none" xmlns="http://www.w3.org/2000/svg">
<path d="M156.57 234.13H144.26C142.85 234.13 141.71 232.99 141.71 231.58V218.54C137.88 215.76 135.55 211.28 135.55 206.51C135.55 198.32 142.21 191.65 150.41 191.65C158.61 191.65 165.27 198.31 165.27 206.51C165.27 211.28 162.94 215.76 159.11 218.54V231.58C159.11 232.99 157.97 234.13 156.56 234.13H156.57ZM146.81 229.04H154.03V217.17C154.03 216.26 154.51 215.42 155.3 214.97C158.31 213.22 160.19 209.99 160.19 206.52C160.19 201.14 155.81 196.76 150.43 196.76C145.05 196.76 140.67 201.14 140.67 206.52C140.67 209.98 142.54 213.22 145.56 214.97C146.35 215.42 146.83 216.26 146.83 217.17V229.04H146.81Z" fill="#1B3861"/>
<path d="M204.94 78.86C202.92 78.86 200.87 78.35 198.99 77.26C193.29 73.97 191.33 66.66 194.62 60.96C197.91 55.26 205.22 53.3 210.92 56.59C216.62 59.88 218.58 67.19 215.29 72.89C213.08 76.71 209.06 78.85 204.94 78.85V78.86ZM204.97 60.09C202.6 60.09 200.3 61.32 199.03 63.51C198.12 65.09 197.87 66.94 198.35 68.7C198.82 70.46 199.95 71.94 201.54 72.85C204.81 74.74 209 73.61 210.89 70.35C212.77 67.08 211.65 62.89 208.39 61.01C207.32 60.39 206.14 60.1 204.98 60.1L204.97 60.09Z" fill="#0069FF"/>
<path d="M80.8204 118.5C78.7504 118.5 76.7104 117.96 74.8704 116.9C69.1704 113.61 67.2104 106.3 70.5004 100.6C72.0904 97.84 74.6704 95.87 77.7404 95.04C80.8204 94.22 84.0404 94.64 86.7904 96.23C89.5504 97.82 91.5204 100.4 92.3504 103.48C93.1704 106.56 92.7504 109.77 91.1604 112.53C89.5704 115.29 86.9904 117.26 83.9204 118.09C82.8904 118.37 81.8504 118.5 80.8104 118.5H80.8204ZM80.8504 99.72C80.2504 99.72 79.6604 99.8 79.0704 99.96C77.3104 100.43 75.8304 101.56 74.9204 103.15C73.0404 106.42 74.1604 110.61 77.4204 112.49C79.0004 113.4 80.8504 113.65 82.6104 113.17C84.3704 112.7 85.8504 111.57 86.7604 109.98C87.6704 108.4 87.9204 106.55 87.4404 104.79C86.9704 103.03 85.8404 101.55 84.2504 100.64C83.2004 100.03 82.0304 99.72 80.8404 99.72H80.8504Z" fill="#0069FF"/>
<path d="M150.75 262.72C148.73 262.72 146.68 262.21 144.8 261.12C139.1 257.83 137.14 250.52 140.43 244.82C143.72 239.12 151.03 237.16 156.73 240.45C162.43 243.74 164.39 251.05 161.1 256.75C158.89 260.57 154.87 262.71 150.75 262.71V262.72ZM150.78 243.95C148.41 243.95 146.11 245.18 144.84 247.37C142.95 250.64 144.08 254.83 147.34 256.71C150.61 258.59 154.8 257.47 156.68 254.21C158.56 250.94 157.44 246.75 154.18 244.87C153.11 244.25 151.93 243.96 150.77 243.96L150.78 243.95Z" fill="#0069FF"/>
<path d="M156.39 107.32C150.29 103.8 142.46 105.9 138.93 112C135.41 118.1 137.51 125.94 143.61 129.46C145.62 130.62 147.81 131.17 149.98 131.17C154.4 131.17 158.71 128.88 161.07 124.78C164.59 118.68 162.49 110.84 156.39 107.32Z" fill="#1B3861"/>
<path d="M150.77 177.56C170.26 177.56 186.12 193.42 186.12 212.9C186.12 211.49 187.26 210.35 188.67 210.35C190.08 210.35 191.22 211.49 191.22 212.9C191.22 190.6 173.08 172.46 150.78 172.46C128.48 172.46 110.34 190.6 110.34 212.9C110.34 231.06 122.37 246.45 138.88 251.55C138.77 249.84 139.04 248.1 139.69 246.44C125.62 241.77 115.44 228.52 115.44 212.9C115.44 193.41 131.3 177.56 150.78 177.56H150.77Z" fill="#0069FF"/>
<path d="M188.67 210.35C187.26 210.35 186.12 211.49 186.12 212.9C186.12 228.51 175.93 241.77 161.87 246.43C162.5 248.05 162.78 249.8 162.67 251.55C179.18 246.46 191.21 231.06 191.21 212.9C191.21 211.49 190.07 210.35 188.66 210.35H188.67Z" fill="#1B3861"/>
<path d="M236.53 154.18C216.69 133.36 190.86 120.67 162.75 117.68C162.85 119.36 162.61 121.07 162.01 122.72C188.99 125.55 213.8 137.72 232.84 157.7C235.16 160.13 236.39 163.31 236.31 166.67C236.23 170.02 234.85 173.15 232.42 175.46C231.4 176.43 231.36 178.04 232.33 179.06C232.83 179.58 233.5 179.85 234.17 179.85C234.8 179.85 235.43 179.62 235.93 179.15C239.34 175.9 241.29 171.51 241.4 166.79C241.51 162.08 239.78 157.6 236.53 154.19V154.18Z" fill="#1B3861"/>
<path d="M232.33 179.06C231.36 178.04 231.4 176.43 232.42 175.46C230.07 177.7 227 178.93 223.76 178.93C220.29 178.93 217.06 177.55 214.66 175.03C197.55 157.08 174.5 147.19 149.75 147.19C125 147.19 103.54 156.42 86.6404 173.17C81.7204 178.05 73.7504 178.01 68.8704 173.09C66.5104 170.71 65.2204 167.55 65.2304 164.19C65.2404 160.83 66.5704 157.69 68.9504 155.32C68.4504 155.81 67.8104 156.06 67.1604 156.06C66.5104 156.06 65.8504 155.81 65.3504 155.31C64.3604 154.31 64.3704 152.7 65.3704 151.71C62.0204 155.03 60.1604 159.45 60.1404 164.17C60.1204 168.89 61.9404 173.33 65.2504 176.68C72.1004 183.59 83.3004 183.65 90.2204 176.79C106.17 160.99 127.31 152.28 149.75 152.28C172.19 152.28 194.83 161.61 210.97 178.54C214.34 182.07 218.88 184.01 223.75 184.01C228.3 184.01 232.63 182.28 235.93 179.14C235.44 179.61 234.8 179.84 234.17 179.84C233.5 179.84 232.83 179.58 232.33 179.05V179.06Z" fill="#0069FF"/>
<path d="M137.26 117.63C110.16 120.42 84.9904 132.27 65.3704 151.71C64.3704 152.7 64.3604 154.31 65.3504 155.31C65.8504 155.81 66.5004 156.06 67.1604 156.06C67.8204 156.06 68.4604 155.81 68.9504 155.32C87.7804 136.66 111.95 125.3 137.97 122.66C137.4 121.05 137.15 119.34 137.25 117.62L137.26 117.63Z" fill="#1B3861"/>
<path d="M271.82 112.03C256.65 94.14 237.64 80.12 216.31 70.62C216.06 71.4 215.72 72.16 215.3 72.89C214.84 73.68 214.29 74.39 213.69 75.03C234.56 84.23 253.14 97.87 267.94 115.32C272.42 120.6 271.77 128.55 266.49 133.03C264.22 134.95 261.34 136.01 258.37 136.01C254.67 136.01 251.18 134.39 248.78 131.57C224.52 102.97 187.94 86.57 148.41 86.57C127.93 86.57 108.13 91.08 90.4004 99.41C91.3004 100.61 91.9704 101.98 92.3704 103.47C92.4204 103.66 92.4504 103.86 92.5004 104.05C109.57 96.02 128.66 91.67 148.41 91.67C186.44 91.67 221.6 107.42 244.9 134.87C248.26 138.83 253.17 141.1 258.37 141.1C262.54 141.1 266.6 139.61 269.79 136.91C277.21 130.61 278.13 119.45 271.83 112.03H271.82Z" fill="#1B3861"/>
<path d="M69.9604 111.41C63.0604 116.37 56.6704 122 50.9204 128.29C46.2504 133.4 38.2904 133.76 33.1704 129.09C28.0604 124.42 27.7004 116.45 32.3704 111.34C61.3404 79.64 103.63 61.46 148.41 61.46C163.79 61.46 178.8 63.58 193.06 67.62C192.96 65.93 193.23 64.2 193.88 62.56C179.34 58.5 164.06 56.37 148.41 56.37C102.2 56.36 58.5404 75.15 28.6104 107.9C22.0504 115.08 22.5504 126.28 29.7304 132.84C36.9204 139.4 48.1104 138.9 54.6704 131.71C60.1804 125.68 66.3304 120.27 72.9504 115.51C71.6404 114.35 70.6304 112.94 69.9504 111.4L69.9604 111.41Z" fill="#1B3861"/>
</svg>
